<svg width="40" height="90" viewBox="0 0 45 45" fill="none" xmlns="http://www.w3.org/2000/svg">
<path d="M23 22.75C24.0312 22.75 24.9144 22.3825 25.6494 21.6475C26.3831 20.9137 26.75 20.0312 26.75 19C26.75 17.9687 26.3831 17.0856 25.6494 16.3506C24.9144 15.6169 24.0312 15.25 23 15.25C21.9687 15.25 21.0862 15.6169 20.3525 16.3506C19.6175 17.0856 19.25 17.9687 19.25 19C19.25 20.0312 19.6175 20.9137 20.3525 21.6475C21.0862 22.3825 21.9687 22.75 23 22.75ZM23 40.7969C22.75 40.7969 22.5 40.75 22.25 40.6562C22 40.5625 21.7812 40.4375 21.5937 40.2812C17.0312 36.25 13.625 32.5081 11.375 29.0556C9.125 25.6019 8 22.375 8 19.375C8 14.6875 9.50813 10.9531 12.5244 8.17187C15.5394 5.39062 19.0312 4 23 4C26.9687 4 30.4606 5.39062 33.4756 8.17187C36.4919 10.9531 38 14.6875 38 19.375C38 22.375 36.875 25.6019 34.625 29.0556C32.375 32.5081 28.9687 36.25 24.4062 40.2812C24.2187 40.4375 24 40.5625 23.75 40.6562C23.5 40.75 23.25 40.7969 23 40.7969Z" fill="#395307"/>
<circle cx="23" cy="19" r="10" fill="white"/>
<path d="M22.53 17.9528C22.669 16.5633 24.2091 15.4053 24.9618 15C25.2397 15.6948 25.1934 16.7949 25.1355 17.2581C24.7186 18.6476 23.8038 19.574 23.3985 19.8635C22.5648 19.1687 22.4721 18.3002 22.53 17.9528Z" fill="#C8D300"/>
<path d="M20.5642 20.8552C19.4303 20.04 19.1975 18.1273 19.2228 17.2728C19.9635 17.3795 20.893 17.9696 21.2652 18.2514C22.2602 19.3072 22.605 20.5626 22.6531 21.0584C21.6345 21.433 20.8361 21.079 20.5642 20.8552Z" fill="#C8D300"/>
<path d="M25.06 19.9464C26.4382 19.721 27.9554 20.9089 28.5416 21.531C27.9425 21.9793 26.8679 22.2193 26.4055 22.2833C24.9554 22.2402 23.8238 21.5964 23.4393 21.2798C23.8946 20.2947 24.7095 19.9804 25.06 19.9464Z" fill="#C8D300"/>
</svg>
